<?xml version="1.0" standalone="no"?>
<!DOCTYPE svg PUBLIC "-//W3C//DTD SVG 20010904//EN"
 "http://www.w3.org/TR/2001/REC-SVG-20010904/DTD/svg10.dtd">
<svg version="1.0" xmlns="http://www.w3.org/2000/svg"
 width="512.000000pt" height="512.000000pt" viewBox="0 0 512.000000 512.000000"
 preserveAspectRatio="xMidYMid meet">
<metadata>
Created by potrace 1.14, written by Peter Selinger 2001-2017
</metadata>
<g transform="translate(0.000000,512.000000) scale(0.100000,-0.100000)"
fill="#000000" stroke="none">
<path d="M2073 5107 c-4 -6 -1 -7 8 -2 8 5 10 4 6 0 -11 -12 -37 -15 -37 -4 0
5 -5 9 -11 9 -5 0 -7 -4 -4 -10 3 -6 -1 -7 -9 -4 -10 4 -16 1 -17 -7 0 -8 -4
-5 -9 6 -7 17 -9 17 -9 3 -1 -12 -6 -15 -18 -11 -11 4 -14 3 -9 -5 4 -7 2 -12
-3 -12 -6 0 -11 5 -11 11 0 6 -7 4 -15 -4 -8 -9 -24 -13 -36 -10 -15 4 -20 3
-15 -5 4 -7 2 -12 -3 -12 -6 0 -11 5 -11 11 0 6 -7 3 -16 -5 -12 -13 -20 -14
-37 -4 -20 10 -21 10 -8 -6 13 -15 12 -16 -13 -7 -22 9 -26 8 -26 -7 0 -11 -8
-18 -21 -19 -21 -2 -21 -1 -3 13 14 12 10 11 -16 -2 -19 -9 -43 -21 -52 -25
-10 -5 -18 -4 -21 4 -3 7 -6 1 -6 -13 -1 -14 -5 -20 -9 -15 -12 17 -35 17 -28
0 4 -13 2 -14 -14 -5 -11 6 -20 7 -19 3 3 -20 -2 -27 -11 -13 -6 10 -10 11
-10 3 0 -7 -9 -13 -21 -13 -11 0 -17 -4 -14 -10 3 -5 -1 -10 -10 -10 -10 0
-13 5 -9 12 4 7 3 8 -4 4 -7 -4 -12 -14 -12 -23 0 -13 -2 -14 -17 -2 -15 12
-16 12 -10 -5 6 -16 5 -17 -8 -6 -9 7 -18 10 -22 6 -3 -3 -1 -6 6 -6 7 0 9 -5
6 -10 -5 -8 -12 -7 -23 2 -9 7 -13 9 -10 3 3 -5 0 -16 -8 -23 -9 -8 -14 -9
-14 -2 0 8 -5 7 -15 -2 -40 -36 -45 -39 -45 -26 0 6 -7 3 -16 -8 -8 -10 -12
-13 -8 -5 5 9 3 12 -4 7 -7 -4 -12 -15 -12 -24 0 -15 -2 -15 -10 -2 -9 14 -14
7 -11 -13 1 -5 -3 -5 -10 -2 -6 4 -19 -2 -30 -14 -11 -12 -29 -21 -39 -21 -11
0 -20 -5 -20 -11 0 -5 -5 -7 -12 -3 -8 5 -9 1 -4 -12 5 -15 4 -16 -5 -7 -6 6
-18 9 -26 6 -12 -5 -12 -7 -1 -14 10 -7 8 -9 -6 -9 -13 0 -16 -5 -12 -16 6
-15 4 -15 -10 -3 -14 11 -17 10 -26 -4 -5 -10 -14 -15 -19 -11 -5 3 -8 2 -7
-3 2 -4 -1 -8 -7 -8 -5 0 -9 4 -7 8 1 5 -2 6 -7 2 -6 -3 -7 -13 -4 -22 4 -11
3 -14 -5 -9 -7 4 -12 1 -12 -8 0 -10 -9 -16 -23 -16 -26 0 -57 -28 -57 -51 0
-12 -2 -11 -10 1 -6 9 -10 11 -10 3 0 -7 -7 -10 -17 -6 -15 5 -15 3 2 -11 11
-10 14 -15 8 -11 -7 3 -13 1 -13 -6 0 -8 -4 -8 -15 1 -13 11 -14 10 -9 -5 6
-14 4 -16 -6 -10 -9 5 -11 4 -6 -4 11 -17 -12 -40 -35 -36 -11 2 -17 0 -13 -6
3 -6 -3 -13 -15 -16 -11 -3 -18 -10 -14 -16 4 -6 0 -8 -9 -5 -11 5 -14 0 -12
-17 1 -18 -2 -22 -14 -18 -11 5 -13 3 -7 -8 7 -11 5 -11 -10 1 -17 14 -18 14
-7 -7 10 -19 9 -20 -9 -16 -13 4 -19 1 -17 -8 2 -8 -3 -13 -9 -12 -7 2 -13 -2
-13 -8 0 -5 -4 -8 -9 -5 -5 3 -8 -2 -7 -12 0 -10 -6 -17 -15 -16 -12 1 -16 -5
-14 -22 1 -17 -1 -21 -9 -15 -7 6 -16 3 -26 -7 -13 -14 -12 -15 4 -9 16 6 17
5 7 -7 -7 -8 -19 -12 -27 -9 -8 3 -14 2 -13 -3 4 -23 -3 -35 -26 -46 -19 -9
-22 -14 -14 -25 10 -11 8 -12 -6 -7 -13 5 -16 4 -11 -4 4 -7 2 -12 -4 -12 -7
0 -10 -7 -7 -15 7 -18 -9 -30 -19 -14 -5 8 -3 9 6 4 9 -5 11 -4 6 4 -11 18
-25 4 -22 -23 3 -19 -1 -24 -16 -21 -17 4 -18 2 -6 -12 9 -12 9 -15 1 -9 -8 4
-13 2 -13 -4 0 -6 -4 -8 -10 -5 -6 4 -7 -1 -3 -11 5 -13 3 -15 -7 -9 -10 6
-12 4 -7 -9 4 -9 3 -15 -2 -12 -5 3 -14 -1 -21 -9 -11 -13 -10 -15 6 -10 10 4
3 -3 -16 -15 -19 -12 -28 -19 -19 -17 9 3 16 -1 16 -8 0 -8 -7 -11 -16 -7 -13
5 -14 3 -3 -10 11 -13 10 -16 -4 -14 -9 0 -23 -10 -32 -24 -14 -21 -14 -23 -1
-15 8 6 6 2 -4 -7 -11 -10 -16 -18 -12 -18 3 0 -1 -7 -9 -16 -9 -8 -13 -21 -9
-27 4 -7 0 -8 -12 -3 -14 5 -16 4 -6 -8 9 -11 8 -15 -4 -20 -8 -3 -15 -15 -15
-26 0 -11 -5 -20 -11 -20 -5 0 -7 5 -3 12 4 7 3 8 -5 4 -9 -6 -9 -11 0 -22 9
-11 9 -14 0 -14 -7 0 -9 -5 -5 -12 5 -8 2 -9 -11 -4 -15 5 -16 4 -5 -9 9 -11
9 -15 1 -15 -7 0 -9 -5 -5 -12 5 -8 2 -9 -11 -4 -15 5 -16 4 -5 -9 8 -10 9
-15 1 -15 -6 0 -10 -6 -9 -12 2 -7 -3 -12 -11 -10 -12 3 -12 1 0 -14 12 -15
12 -17 0 -9 -11 6 -13 3 -9 -13 4 -12 2 -20 -3 -16 -5 3 -9 -2 -9 -11 0 -10
-5 -13 -12 -9 -9 5 -9 2 1 -9 12 -15 11 -17 -2 -17 -9 0 -19 -5 -23 -12 -4 -6
-3 -8 3 -5 6 4 13 -2 16 -12 3 -13 0 -18 -8 -15 -7 3 -16 0 -21 -7 -4 -7 -3
-10 4 -6 6 5 8 0 5 -13 -3 -11 -10 -20 -17 -20 -6 0 -4 -5 4 -10 13 -8 12 -10
-2 -10 -18 0 -20 -6 -22 -64 0 -16 -7 -31 -13 -33 -7 -3 -13 -9 -13 -14 0 -6
5 -7 12 -3 7 4 8 3 4 -4 -4 -7 -15 -12 -24 -12 -13 0 -14 -2 -3 -9 8 -5 11
-16 6 -30 -3 -12 -11 -18 -17 -15 -6 4 -5 -3 2 -16 7 -13 8 -20 1 -16 -16 10
-15 -1282 2 -1303 8 -10 8 -13 0 -8 -7 5 -9 0 -6 -13 3 -11 10 -17 17 -13 6 4
5 -1 -3 -10 -13 -16 -9 -21 14 -18 6 1 1 -6 -9 -14 -17 -13 -17 -15 -3 -15 11
0 14 -5 10 -17 -5 -12 -3 -14 8 -8 11 6 12 5 2 -6 -7 -7 -13 -18 -13 -24 0 -5
5 -3 10 5 8 12 10 11 10 -7 0 -13 5 -23 12 -23 9 0 9 -3 0 -12 -18 -18 -15
-28 11 -29 21 0 21 -1 2 -9 -17 -7 -17 -9 -2 -9 9 -1 17 -6 17 -12 0 -5 -6 -7
-13 -3 -6 4 -4 -2 6 -13 14 -16 15 -22 5 -26 -8 -3 -6 -6 5 -6 14 -1 17 -6 11
-23 -3 -13 -3 -20 1 -16 15 15 35 -13 25 -33 -9 -15 -8 -17 7 -12 15 6 16 4 5
-9 -9 -11 -10 -18 -2 -23 6 -3 8 -11 4 -16 -3 -5 0 -8 8 -7 8 2 13 -6 12 -19
0 -19 2 -21 14 -10 13 10 14 9 3 -12 -11 -19 -11 -22 0 -16 9 6 11 3 6 -8 -4
-10 0 -20 9 -25 8 -5 16 -18 17 -30 1 -15 6 -21 16 -17 11 4 11 3 2 -9 -10
-12 -8 -17 9 -26 11 -6 18 -15 15 -21 -4 -5 -1 -9 5 -9 6 0 8 -4 5 -10 -3 -5
-1 -10 5 -10 6 0 8 -5 4 -13 -5 -8 -2 -7 9 2 15 12 17 12 11 -3 -3 -9 -1 -16
6 -16 6 0 8 -5 5 -10 -4 -6 2 -18 12 -28 11 -9 12 -12 3 -7 -13 9 -13 8 -2 -7
8 -10 10 -23 6 -30 -6 -11 -5 -11 8 0 13 10 17 10 22 -4 3 -9 3 -20 0 -25 -3
-5 0 -8 8 -7 8 2 12 -4 10 -16 -2 -12 1 -16 9 -10 9 5 10 2 6 -9 -4 -10 -2
-14 7 -11 7 3 18 -10 26 -31 12 -30 16 -33 21 -18 6 14 8 12 8 -9 1 -18 6 -28
17 -28 8 0 12 -4 9 -10 -3 -5 -2 -10 3 -10 5 0 15 -13 22 -30 7 -16 19 -30 27
-30 8 0 11 -4 8 -10 -6 -9 8 -14 28 -11 5 1 6 -3 2 -9 -8 -13 14 -42 25 -35 5
3 11 -4 15 -15 3 -11 11 -20 16 -20 5 0 9 -6 9 -14 0 -8 8 -13 18 -12 11 1 16
-5 14 -16 -2 -10 2 -18 8 -18 20 0 42 -30 36 -47 -5 -13 -4 -14 9 -3 11 9 15
9 15 1 0 -7 5 -9 13 -5 6 4 9 4 5 -1 -13 -14 12 -45 37 -45 15 0 24 -5 22 -12
-1 -7 4 -12 12 -10 12 3 12 1 0 -14 -9 -12 -9 -15 -2 -10 8 4 13 2 13 -5 0 -8
5 -7 17 2 10 8 14 9 10 2 -4 -6 -2 -15 4 -18 5 -4 8 -14 4 -24 -5 -12 -4 -13
6 -4 9 9 16 7 31 -13 11 -13 26 -24 34 -24 8 0 14 -5 14 -11 0 -5 4 -7 10 -4
5 3 10 1 10 -5 0 -6 5 -8 10 -5 6 4 9 1 8 -6 -2 -7 3 -14 10 -15 6 -1 17 -2
22 -3 6 0 10 -8 10 -17 0 -8 4 -13 9 -9 5 3 12 -4 16 -15 6 -20 16 -24 44 -21
7 2 10 -2 6 -8 -5 -10 1 -13 21 -10 3 0 12 -8 20 -18 13 -17 14 -17 9 2 -5 16
-3 16 6 -3 7 -12 18 -22 26 -22 9 0 11 -5 7 -12 -5 -8 0 -7 11 2 11 9 16 10
11 2 -4 -7 -2 -12 4 -12 6 0 9 -4 6 -9 -3 -5 2 -8 12 -7 10 0 16 -5 14 -13 -3
-12 0 -12 12 -1 11 8 16 9 16 1 0 -6 15 -18 33 -27 31 -17 32 -17 17 2 -14 18
-14 18 3 5 9 -7 17 -20 17 -27 0 -8 5 -14 11 -14 5 0 8 4 4 9 -3 5 0 13 6 17
7 4 10 3 6 -2 -3 -5 2 -18 10 -29 10 -13 14 -14 10 -4 -3 9 0 16 8 16 8 0 14
-3 13 -6 -2 -21 4 -30 17 -25 8 4 17 -1 21 -10 3 -9 10 -16 16 -16 5 0 7 4 3
9 -3 5 0 13 6 17 7 4 9 3 6 -3 -7 -11 20 -28 37 -24 5 1 6 -5 2 -14 -4 -13 -2
-14 14 -5 17 9 19 8 13 -7 -5 -15 -3 -16 7 -6 11 10 16 9 27 -5 8 -9 12 -11 8
-5 -4 9 -1 11 9 7 9 -3 13 -10 10 -15 -3 -5 2 -9 11 -9 10 0 13 5 9 13 -9 13
26 -11 38 -28 5 -6 8 -5 8 4 0 8 8 4 20 -10 18 -21 19 -22 14 -4 -6 20 -5 20
10 1 16 -20 16 -20 17 0 0 14 2 15 6 4 3 -8 13 -19 22 -24 20 -13 52 -15 45
-4 -3 4 0 8 5 8 6 0 11 -7 11 -17 0 -14 2 -14 23 3 12 10 16 12 10 4 -19 -21
-16 -35 4 -19 14 12 16 12 8 0 -6 -11 -3 -13 13 -9 15 4 22 2 22 -9 0 -12 2
-12 16 1 19 19 25 20 21 4 -1 -8 11 -15 28 -17 17 -2 290 -5 608 -6 457 -2
576 0 568 9 -8 9 -6 13 4 13 8 0 15 -4 15 -9 0 -5 5 -6 10 -3 6 4 7 11 4 17
-5 7 -1 7 11 1 22 -13 57 -5 48 11 -4 6 2 4 12 -4 17 -14 18 -13 12 4 -7 17
-6 17 10 5 15 -12 16 -12 10 4 -5 13 -3 16 6 10 17 -11 38 -13 32 -3 -5 8 16
20 43 26 9 1 11 -4 8 -14 -5 -15 -5 -15 7 0 8 10 17 15 20 11 4 -3 7 -2 7 4 0
6 9 9 20 6 12 -3 20 0 20 6 0 7 -5 9 -12 5 -7 -4 -8 -3 -4 5 6 9 11 9 22 0 8
-6 14 -7 14 -2 0 5 11 10 25 11 47 3 54 5 49 14 -3 5 -10 5 -16 2 -6 -4 -8 -2
-4 4 3 6 17 9 31 6 16 -3 27 2 34 13 6 11 11 13 11 5 0 -7 5 -10 10 -7 6 4 8
11 5 16 -9 13 9 11 24 -3 11 -10 12 -10 7 -1 -4 8 2 15 19 19 15 4 22 11 18
18 -4 6 1 4 12 -4 17 -14 17 -13 12 10 -4 14 -4 19 -1 12 5 -10 9 -10 22 0 13
11 14 11 7 -1 -5 -10 -4 -12 3 -7 7 4 12 15 12 24 0 15 2 15 10 2 7 -11 10
-11 10 -2 0 7 5 10 10 7 6 -3 10 -1 10 4 0 6 6 10 13 8 6 -1 11 3 10 9 -1 6 9
10 23 8 19 -2 23 1 15 10 -8 9 -3 12 19 10 17 -1 28 3 27 9 -1 6 3 11 10 12 7
0 19 9 28 20 9 11 14 15 11 9 -3 -6 1 -11 9 -11 8 0 12 4 10 8 -3 4 2 10 11
13 8 3 12 11 8 17 -4 8 0 8 15 0 12 -7 21 -8 20 -4 -4 23 2 43 11 38 6 -4 7
-11 4 -17 -5 -7 -2 -8 5 -4 7 5 10 15 6 24 -3 9 -3 13 1 9 4 -4 14 -1 23 6 14
11 15 10 1 -8 -14 -19 -14 -19 3 -6 10 8 16 20 13 27 -3 9 0 11 11 7 11 -4 14
-2 9 5 -5 8 -1 10 10 5 13 -5 15 -3 9 8 -7 11 -5 11 10 -1 10 -8 16 -10 12 -4
-6 11 27 46 36 38 2 -3 16 9 31 26 14 17 30 29 35 26 5 -3 8 2 7 12 0 11 5 16
15 14 10 -1 19 6 22 18 4 14 10 18 23 13 13 -5 15 -3 9 7 -6 10 -4 12 11 6 10
-4 15 -4 11 0 -4 4 -1 14 6 22 10 13 9 15 -3 8 -8 -4 -6 0 5 8 11 9 26 14 34
11 11 -4 11 -3 2 9 -11 13 -9 15 8 11 12 -2 19 0 16 6 -4 5 -1 9 4 9 6 0 11 4
11 10 0 5 -8 7 -17 4 -15 -5 -15 -4 -3 4 9 7 19 7 25 2 14 -12 35 7 35 32 0
21 16 24 23 6 3 -7 4 2 2 20 -3 31 8 44 18 20 4 -10 6 -10 6 0 1 7 6 10 12 6
8 -4 8 0 0 15 -9 17 -9 21 1 19 7 -2 12 3 10 11 -3 12 -1 12 14 0 12 -9 15 -9
10 -1 -4 6 -3 12 3 12 6 0 8 6 5 14 -3 8 0 17 7 22 7 4 10 3 5 -4 -3 -6 -2
-13 3 -16 5 -4 8 4 7 17 -2 14 2 24 10 24 7 0 11 -5 8 -11 -4 -6 6 3 20 21 15
18 27 36 27 40 2 18 21 43 29 38 5 -3 7 4 5 16 -2 12 -2 19 2 16 7 -8 27 12
36 36 4 10 11 15 17 12 6 -3 7 1 4 9 -4 9 0 18 9 22 9 3 18 13 21 21 5 12 3
13 -7 7 -7 -5 -1 2 13 15 14 13 18 20 10 16 -8 -4 -4 3 10 14 14 11 19 21 12
21 -7 0 -11 4 -7 10 3 5 13 6 23 3 15 -6 16 -5 2 12 -14 17 -13 18 4 12 16 -6
17 -5 7 7 -9 11 -9 16 0 22 8 5 9 3 4 -6 -6 -9 -4 -11 4 -5 7 4 11 18 8 31 -3
20 -2 22 10 13 11 -9 12 -9 8 4 -4 8 -1 18 6 23 8 5 10 3 4 -6 -5 -8 -4 -11 3
-7 5 4 8 17 5 30 -4 18 -3 19 7 7 9 -12 10 -10 5 9 -6 20 -4 23 9 18 10 -4 14
-3 11 2 -3 5 -1 12 4 16 5 3 8 14 6 25 -2 11 1 20 7 20 5 0 8 7 4 15 -3 8 -1
15 4 15 18 0 32 40 20 55 -8 10 -8 15 1 21 8 4 9 3 5 -4 -4 -7 -1 -12 8 -12 9
0 15 3 15 8 -4 25 2 62 10 57 5 -3 13 0 17 6 4 7 3 9 -3 6 -6 -4 -13 0 -16 8
-4 10 -1 12 10 8 12 -5 15 -2 10 10 -3 8 -1 18 6 21 8 3 6 5 -3 5 -9 1 -3 9
15 21 17 11 24 20 18 20 -7 0 -13 7 -13 15 0 8 3 15 8 15 4 0 13 10 21 22 l14
23 -23 -20 c-24 -21 -19 -5 8 27 13 15 13 20 1 35 -8 9 -9 14 -4 11 6 -4 17 2
24 14 7 11 8 17 2 13 -6 -3 -11 -1 -11 4 0 6 4 11 9 11 14 0 14 1296 0 1322
-8 15 -8 19 0 14 6 -4 11 -2 11 3 0 6 -5 11 -11 11 -7 0 -9 9 -6 21 4 16 2 19
-10 15 -13 -5 -13 -4 -4 7 8 11 7 19 -8 36 -11 12 -17 30 -14 41 3 13 0 20 -8
20 -10 0 -10 3 -1 12 15 15 16 31 0 22 -8 -5 -9 -2 -4 11 5 14 4 15 -7 7 -10
-8 -13 -6 -13 8 0 10 4 16 9 13 9 -6 -14 39 -24 47 -4 3 -9 16 -10 30 -2 14
-12 32 -22 42 -13 12 -15 18 -6 24 8 5 4 11 -12 21 -13 8 -16 12 -7 9 12 -3
15 -1 11 9 -3 8 -9 12 -14 9 -5 -3 -9 10 -9 28 0 19 -4 28 -8 21 -5 -7 -11 1
-18 23 -7 23 -8 34 -1 34 6 0 7 3 4 6 -4 4 -13 1 -21 -5 -13 -11 -14 -9 -10
13 3 21 1 24 -13 19 -15 -6 -16 -4 -5 9 9 11 10 18 2 23 -6 3 -7 12 -3 18 4 7
-2 5 -12 -3 -17 -14 -18 -13 -13 8 5 16 2 22 -10 22 -13 0 -14 2 -4 9 11 6 10
10 -3 15 -10 3 -15 12 -11 21 3 8 2 15 -2 15 -5 0 -17 7 -28 15 -19 15 -19 15
1 9 15 -4 13 -1 -5 9 -14 9 -25 21 -26 29 -3 33 -5 38 -20 38 -11 0 -15 6 -11
19 3 13 0 18 -8 15 -7 -3 -16 0 -21 7 -4 7 -3 10 4 5 6 -3 13 -2 17 4 4 6 -5
10 -22 10 -22 0 -25 2 -13 10 13 8 12 10 -4 10 -11 0 -17 3 -13 6 3 3 -6 17
-21 31 l-27 24 30 -18 30 -18 -35 38 c-36 38 -53 50 -29 20 12 -16 12 -17 -2
-6 -9 7 -19 9 -24 5 -4 -4 -3 3 3 14 14 26 -7 50 -34 40 -15 -6 -15 -4 -3 11
12 15 12 16 -3 10 -13 -4 -15 -2 -11 10 4 11 2 14 -5 9 -8 -5 -10 -2 -6 8 4
12 0 16 -16 16 -11 0 -18 5 -15 10 3 6 1 10 -5 10 -6 0 -8 5 -5 10 6 9 -8 15
-29 11 -5 -1 -6 5 -3 13 4 9 2 18 -4 21 -5 4 -7 10 -4 15 3 4 -3 7 -13 6 -10
0 -16 6 -16 16 1 10 -2 15 -7 12 -13 -8 -49 5 -49 18 0 6 7 5 18 -3 15 -13 16
-12 3 3 -7 10 -18 15 -23 12 -5 -3 -12 3 -15 14 -3 11 -12 23 -20 27 -14 5
-14 3 -2 -12 13 -16 12 -17 -4 -4 -10 8 -15 21 -12 29 5 13 3 13 -12 1 -14
-12 -16 -12 -8 0 6 11 4 13 -7 8 -12 -4 -15 0 -14 17 2 19 -1 22 -20 20 -13
-1 -23 1 -23 4 3 20 -2 32 -11 27 -5 -3 -10 2 -10 12 0 15 -2 16 -10 3 -8 -12
-10 -12 -10 5 0 17 -2 17 -10 5 -8 -13 -10 -12 -10 3 0 10 -4 15 -10 12 -9 -6
-15 8 -11 29 1 5 -6 3 -15 -5 -12 -9 -15 -9 -10 -1 4 7 2 12 -4 12 -6 0 -8 4
-5 10 3 6 -1 7 -9 4 -9 -3 -16 -1 -16 6 0 6 -4 8 -10 5 -5 -3 -10 -1 -10 5 0
6 -4 8 -10 5 -5 -3 -10 1 -10 9 0 9 -7 16 -15 16 -8 0 -15 6 -15 13 0 9 -3 8
-9 -2 -7 -11 -10 -9 -16 9 -6 18 -9 20 -16 9 -7 -11 -9 -11 -9 2 0 9 -8 23
-17 30 -10 8 -14 9 -10 2 4 -6 3 -14 -3 -18 -5 -3 -10 1 -10 10 0 10 -5 13
-12 9 -8 -5 -9 -2 -5 10 5 14 3 15 -13 6 -15 -8 -23 -5 -40 18 -12 15 -25 27
-28 27 -4 0 -6 4 -4 9 2 5 -5 3 -14 -5 -15 -12 -17 -12 -9 0 6 11 4 13 -9 8
-9 -4 -14 -3 -11 2 3 5 1 12 -5 16 -5 3 -10 1 -10 -4 0 -6 -5 -11 -11 -11 -6
0 -8 7 -5 17 4 10 4 14 0 11 -3 -4 -13 0 -21 8 -12 12 -18 12 -31 2 -12 -10
-14 -10 -8 0 5 8 0 12 -14 12 -12 0 -19 4 -16 9 3 5 -1 12 -10 15 -8 3 -12 2
-9 -3 3 -5 1 -13 -5 -16 -6 -4 -10 -3 -9 2 1 4 1 17 0 27 -1 20 -1 20 -16 0
-9 -10 -14 -13 -13 -5 2 7 -6 15 -17 17 -11 1 -26 11 -34 21 -12 16 -13 16 -8
1 5 -15 3 -16 -18 -6 -13 6 -22 15 -19 19 8 13 -10 11 -23 -2 -8 -8 -15 -5
-24 8 -17 24 -49 37 -49 20 0 -8 -3 -8 -9 2 -5 7 -14 10 -20 7 -6 -4 -11 -2
-11 4 0 6 -4 8 -10 5 -6 -3 -10 -1 -10 5 0 6 -4 8 -10 5 -5 -3 -10 -2 -10 3 0
5 -6 9 -12 9 -7 0 -20 3 -28 5 -8 3 -12 3 -7 1 4 -3 7 -10 7 -16 -1 -7 -8 -3
-18 8 -9 12 -26 24 -37 28 -20 7 -20 7 -1 -8 24 -18 16 -19 -18 -4 -14 7 -24
15 -21 18 2 4 -8 7 -23 7 -15 1 -36 5 -46 9 -15 7 -17 5 -11 -6 7 -11 6 -12
-7 -2 -8 7 -18 10 -21 6 -4 -3 -7 -1 -7 7 0 9 -3 10 -14 1 -9 -8 -15 -8 -18
-1 -1 5 -13 12 -26 15 -14 2 -20 0 -16 -7 4 -7 0 -7 -13 0 -27 15 -911 13
-920 -1z m-1103 -492 c0 -2 -10 -10 -22 -16 -21 -11 -22 -11 -9 4 13 16 31 23
31 12z m3480 -255 c0 -5 -2 -10 -4 -10 -3 0 -8 5 -11 10 -3 6 -1 10 4 10 6 0
11 -4 11 -10z m610 -2656 c0 -8 -19 -13 -24 -6 -3 5 1 9 9 9 8 0 15 -2 15 -3z
m-4850 -304 c0 -5 -5 -10 -11 -10 -5 0 -7 5 -4 10 3 6 8 10 11 10 2 0 4 -4 4
-10z m47 -86 c-3 -3 -12 -4 -19 -1 -8 3 -5 6 6 6 11 1 17 -2 13 -5z m4388
-364 c-10 -11 -22 -20 -27 -20 -10 0 24 38 36 39 5 1 1 -8 -9 -19z m-193 -222
c-7 -7 -12 -8 -12 -2 0 14 12 26 19 19 2 -3 -1 -11 -7 -17z m-3662 -72 c0 -2
-7 -7 -16 -10 -8 -3 -12 -2 -9 4 6 10 25 14 25 6z m137 -131 c0 -8 -4 -12 -9
-9 -5 3 -6 10 -3 15 9 13 12 11 12 -6z m163 -127 c0 -6 -6 -5 -15 2 -8 7 -15
14 -15 16 0 2 7 1 15 -2 8 -4 15 -11 15 -16z"/>
<path d="M3460 5001 c0 -6 4 -13 10 -16 6 -3 7 1 4 9 -7 18 -14 21 -14 7z"/>
<path d="M3870 4811 c0 -5 5 -13 10 -16 6 -3 10 -2 10 4 0 5 -4 13 -10 16 -5
3 -10 2 -10 -4z"/>
<path d="M1200 4790 c-9 -6 -10 -10 -3 -10 6 0 15 5 18 10 8 12 4 12 -15 0z"/>
<path d="M820 4509 c0 -5 5 -7 10 -4 6 3 10 8 10 11 0 2 -4 4 -10 4 -5 0 -10
-5 -10 -11z"/>
<path d="M5076 3328 c3 -5 10 -6 15 -3 13 9 11 12 -6 12 -8 0 -12 -4 -9 -9z"/>
<path d="M994 439 c-4 -7 -3 -9 4 -5 5 3 13 0 15 -6 4 -9 6 -10 6 -1 1 17 -16
25 -25 12z"/>
<path d="M3345 70 c-3 -5 -1 -10 4 -10 6 0 11 5 11 10 0 6 -2 10 -4 10 -3 0
-8 -4 -11 -10z"/>
</g>
</svg>
